<?xml version="1.0" encoding="UTF-8"?>
<svg id="Layer_2" data-name="Layer 2" xmlns="http://www.w3.org/2000/svg" viewBox="0 0 3279.33 1059.35">
  <defs>
    <style>
      .cls-1 {
        fill: none;
        stroke: #983dff;
        stroke-miterlimit: 10;
        stroke-width: 3.04px;
      }
    </style>
  </defs>
  <g id="Layer_1-2" data-name="Layer 1">
    <g>
      <path class="cls-1" d="M3277.41,492.42c17.83,193.92-558.95,1035.82-835.82,157.96-215.68-683.87-455.46-930.16-852.35-228.96-396.9,701.19-758.06,622.71-1210.55-278.26"/>
      <path class="cls-1" d="M3239.68,493.93c17.83,193.92-558.95,1035.82-835.82,157.96-215.68-683.87-455.46-930.16-852.35-228.96-396.9,701.19-758.06,622.71-1210.55-278.26"/>
      <path class="cls-1" d="M3201.95,495.44c17.83,193.92-558.95,1035.82-835.82,157.96-215.68-683.87-455.46-930.16-852.35-228.96-396.9,701.19-758.06,622.71-1210.55-278.26"/>
      <path class="cls-1" d="M3164.21,496.96c17.83,193.92-558.95,1035.82-835.82,157.96-215.68-683.87-455.46-930.16-852.35-228.96-396.9,701.19-758.06,622.71-1210.55-278.26"/>
      <path class="cls-1" d="M3126.48,498.47c17.83,193.92-558.95,1035.82-835.82,157.96-215.68-683.87-455.46-930.16-852.35-228.96C1041.41,1128.66,680.25,1050.17,227.76,149.21"/>
      <path class="cls-1" d="M3088.75,499.98c17.83,193.92-558.95,1035.82-835.82,157.96-215.68-683.87-455.46-930.16-852.35-228.96C1003.68,1130.17,642.52,1051.68,190.02,150.72"/>
      <path class="cls-1" d="M3051.01,501.49c17.83,193.92-558.95,1035.82-835.82,157.96-215.68-683.87-455.46-930.16-852.35-228.96C965.95,1131.68,604.78,1053.19,152.29,152.23"/>
      <path class="cls-1" d="M3013.28,503.01c17.83,193.92-558.95,1035.82-835.82,157.96-215.68-683.87-455.46-930.16-852.35-228.96C928.21,1133.2,567.05,1054.71,114.56,153.74"/>
      <path class="cls-1" d="M2975.55,504.52c17.83,193.92-558.95,1035.82-835.82,157.96-215.68-683.87-455.46-930.16-852.35-228.96C890.48,1134.71,529.32,1056.22,76.82,155.26"/>
      <path class="cls-1" d="M2937.81,506.03c17.83,193.92-558.95,1035.82-835.82,157.96-215.68-683.87-455.46-930.16-852.35-228.96C852.75,1136.22,491.58,1057.73,39.09,156.77"/>
      <path class="cls-1" d="M2900.08,507.54c17.83,193.92-558.95,1035.82-835.82,157.96-215.68-683.87-455.46-930.16-852.35-228.96C815.01,1137.73,453.85,1059.24,1.36,158.28"/>
    </g>
  </g>
</svg>
