<?xml version="1.0" encoding="UTF-8"?>
<svg id="Layer_2" data-name="Layer 2" xmlns="http://www.w3.org/2000/svg" viewBox="0 0 1920.5 260">
  <defs>
    <style>
      .cls-1 {
        fill: none;
        stroke: red;
        stroke-miterlimit: 10;
        stroke-width: 2px;
      }
    </style>
  </defs>
  <g id="Layer_2-2" data-name="Layer 2">
    <g>
      <path class="cls-1" d="M0,133c160.04,0,160.04,126,320.08,126s160.04-126,320.08-126,160.04,126,320.08,126,160.04-126,320.08-126,160.04,126,320.09,126,160.04-126,320.09-126"/>
      <path class="cls-1" d="M0,89c160.04,0,160.04,126,320.08,126s160.04-126,320.08-126,160.04,126,320.08,126,160.04-126,320.08-126,160.04,126,320.09,126,160.04-126,320.09-126"/>
      <path class="cls-1" d="M0,45c160.04,0,160.04,126,320.08,126S480.12,45,640.16,45s160.04,126,320.08,126,160.04-126,320.08-126,160.04,126,320.09,126,160.04-126,320.09-126"/>
      <path class="cls-1" d="M0,1c160.04,0,160.04,126,320.08,126S480.12,1,640.16,1s160.04,126,320.08,126S1120.29,1,1280.33,1s160.04,126,320.09,126S1760.46,1,1920.5,1"/>
    </g>
  </g>
</svg>
