<?xml version="1.0" encoding="UTF-8"?>
<svg id="Layer_2" data-name="Layer 2" xmlns="http://www.w3.org/2000/svg" viewBox="0 0 48.86 27.93">
  <defs>
    <style>
      .cls-1 {
        fill: #ed1e1e;
      }

      .cls-2 {
        fill: #983dff;
      }

      .cls-3 {
        fill: #00ffff;
      }
    </style>
  </defs>
  <g id="Layer_1-2" data-name="Layer 1">
    <g>
      <path class="cls-2" d="M43.42,0c-.43,0-.85,.02-1.27,.05V3.11c0,13.14-10.2,23.89-23.12,24.76h2.41s-21.44,.06-21.44,.06v-3.11C0,11.11,11.11,0,24.81,0h18.61Z"/>
      <path class="cls-1" d="M48.86,0V3.11c0,13.57-10.89,24.59-24.39,24.81h-7.48s1.9-.05,1.9-.05c12.92-.87,23.12-11.62,23.12-24.76V.05c.43,0,6.85-.05,6.85-.05Z"/>
      <path class="cls-3" d="M42.09,0V3.11c0,13.57-10.89,24.59-24.39,24.81l-5.58-.03h0c12.92-.87,23.12-11.64,23.12-24.78V0C35.68,0,42.09,0,42.09,0Z"/>
    </g>
  </g>
</svg>
